<?xml version="1.0" encoding="UTF-8"?>
<!DOCTYPE svg PUBLIC "-//W3C//DTD SVG 1.1//EN" "http://www.w3.org/Graphics/SVG/1.1/DTD/svg11.dtd">
<svg xmlns="http://www.w3.org/2000/svg" version="1.1" width="96px" height="96px" style="shape-rendering:geometricPrecision; text-rendering:geometricPrecision; image-rendering:optimizeQuality; fill-rule:evenodd; clip-rule:evenodd" xmlns:xlink="http://www.w3.org/1999/xlink">
<g><path style="opacity:0.993" fill="#fbc02c" d="M 63.5,10.5 C 63.5,35.1667 63.5,59.8333 63.5,84.5C 58.5603,86.9018 53.227,87.9018 47.5,87.5C 41.849,87.8967 36.5157,86.8967 31.5,84.5C 31.5,59.8333 31.5,35.1667 31.5,10.5C 36.5157,8.10333 41.849,7.10333 47.5,7.5C 53.227,7.09818 58.5603,8.09818 63.5,10.5 Z"/></g>
<g><path style="opacity:0.983" fill="#d50000" d="M 31.5,10.5 C 31.5,35.1667 31.5,59.8333 31.5,84.5C 12.3455,75.1951 4.5122,59.8617 8,38.5C 10.9804,25.0253 18.8137,15.6919 31.5,10.5 Z"/></g>
<g><path style="opacity:0.979" fill="#378d3b" d="M 63.5,10.5 C 82.6545,19.8049 90.4878,35.1383 87,56.5C 84.0196,69.9747 76.1863,79.3081 63.5,84.5C 63.5,59.8333 63.5,35.1667 63.5,10.5 Z"/></g>
</svg>
