<svg width="14" height="14" viewBox="0 0 14 14" fill="none" xmlns="http://www.w3.org/2000/svg">
<g clip-path="url(#clip0_1110_4201)">
<path d="M2.11558 14H11.8845C12.9085 14 13.7408 13.1678 13.7408 12.1437V2.89332C13.7408 1.86925 12.9085 1.03702 11.8845 1.03702H11.1482V0.518509C11.1482 0.23332 10.9148 0 10.6296 0C10.3444 0 10.1111 0.23332 10.1111 0.518509V1.03702H3.88893V0.518509C3.88893 0.23332 3.65556 0 3.37037 0C3.08519 0 2.85187 0.23332 2.85187 0.518509V1.03702H2.11558C1.09151 1.03702 0.259277 1.86925 0.259277 2.89332V12.1437C0.259277 13.1678 1.09151 14 2.11558 14ZM1.29634 2.89332C1.29634 2.44222 1.66448 2.07408 2.11558 2.07408H2.85187V2.59259C2.85187 2.87778 3.08519 3.1111 3.37037 3.1111C3.65556 3.1111 3.88888 2.87778 3.88888 2.59259V2.07408H10.1111V2.59259C10.1111 2.87778 10.3444 3.1111 10.6296 3.1111C10.9148 3.1111 11.1481 2.87778 11.1481 2.59259V2.07408H11.8844C12.3355 2.07408 12.7037 2.44222 12.7037 2.89332V12.1437C12.7037 12.5948 12.3355 12.9629 11.8844 12.9629H2.11558C1.66448 12.9629 1.29634 12.5948 1.29634 12.1437V2.89332Z" fill="white"/>
<path d="M4.0185 5.96293C4.37645 5.96293 4.66663 5.67275 4.66663 5.31479C4.66663 4.95684 4.37645 4.66666 4.0185 4.66666C3.66054 4.66666 3.37036 4.95684 3.37036 5.31479C3.37036 5.67275 3.66054 5.96293 4.0185 5.96293Z" fill="white"/>
<path d="M6.87043 5.96293C7.22838 5.96293 7.51856 5.67275 7.51856 5.31479C7.51856 4.95684 7.22838 4.66666 6.87043 4.66666C6.51247 4.66666 6.22229 4.95684 6.22229 5.31479C6.22229 5.67275 6.51247 5.96293 6.87043 5.96293Z" fill="white"/>
<path d="M9.72223 5.96293C10.0802 5.96293 10.3704 5.67275 10.3704 5.31479C10.3704 4.95684 10.0802 4.66666 9.72223 4.66666C9.36428 4.66666 9.0741 4.95684 9.0741 5.31479C9.0741 5.67275 9.36428 5.96293 9.72223 5.96293Z" fill="white"/>
<path d="M4.0185 8.55552C4.37645 8.55552 4.66663 8.26534 4.66663 7.90738C4.66663 7.54943 4.37645 7.25925 4.0185 7.25925C3.66054 7.25925 3.37036 7.54943 3.37036 7.90738C3.37036 8.26534 3.66054 8.55552 4.0185 8.55552Z" fill="white"/>
<path d="M6.87043 8.55552C7.22838 8.55552 7.51856 8.26534 7.51856 7.90738C7.51856 7.54943 7.22838 7.25925 6.87043 7.25925C6.51247 7.25925 6.22229 7.54943 6.22229 7.90738C6.22229 8.26534 6.51247 8.55552 6.87043 8.55552Z" fill="white"/>
<path d="M9.72223 8.55552C10.0802 8.55552 10.3704 8.26534 10.3704 7.90738C10.3704 7.54943 10.0802 7.25925 9.72223 7.25925C9.36428 7.25925 9.0741 7.54943 9.0741 7.90738C9.0741 8.26534 9.36428 8.55552 9.72223 8.55552Z" fill="white"/>
<path d="M4.0185 11.1481C4.37645 11.1481 4.66663 10.8579 4.66663 10.5C4.66663 10.142 4.37645 9.85184 4.0185 9.85184C3.66054 9.85184 3.37036 10.142 3.37036 10.5C3.37036 10.8579 3.66054 11.1481 4.0185 11.1481Z" fill="white"/>
<path d="M6.87043 11.1481C7.22838 11.1481 7.51856 10.8579 7.51856 10.5C7.51856 10.142 7.22838 9.85184 6.87043 9.85184C6.51247 9.85184 6.22229 10.142 6.22229 10.5C6.22229 10.8579 6.51247 11.1481 6.87043 11.1481Z" fill="white"/>
<path d="M9.72223 11.1481C10.0802 11.1481 10.3704 10.8579 10.3704 10.5C10.3704 10.142 10.0802 9.85184 9.72223 9.85184C9.36428 9.85184 9.0741 10.142 9.0741 10.5C9.0741 10.8579 9.36428 11.1481 9.72223 11.1481Z" fill="white"/>
</g>
<defs>
<clipPath id="clip0_1110_4201">
<rect width="14" height="14" fill="white"/>
</clipPath>
</defs>
</svg>
