<?xml version="1.0" encoding="UTF-8"?>
<!DOCTYPE svg PUBLIC "-//W3C//DTD SVG 1.1//EN" "http://www.w3.org/Graphics/SVG/1.1/DTD/svg11.dtd">
<svg xmlns="http://www.w3.org/2000/svg" version="1.1" width="1156px" height="2436px" style="shape-rendering:geometricPrecision; text-rendering:geometricPrecision; image-rendering:optimizeQuality; fill-rule:evenodd; clip-rule:evenodd" xmlns:xlink="http://www.w3.org/1999/xlink">
<g><path style="opacity:1" fill="#ffe9e7" d="M -0.5,-0.5 C 384.833,-0.5 770.167,-0.5 1155.5,-0.5C 1155.5,0.833333 1155.5,2.16667 1155.5,3.5C 770.167,3.5 384.833,3.5 -0.5,3.5C -0.5,2.16667 -0.5,0.833333 -0.5,-0.5 Z"/></g>
<g><path style="opacity:1" fill="#ff322a" d="M -0.5,3.5 C 384.833,3.5 770.167,3.5 1155.5,3.5C 1155.5,273.833 1155.5,544.167 1155.5,814.5C 1106.17,814.667 1056.83,814.5 1007.5,814C 671.898,622.587 335.898,431.754 -0.5,241.5C -0.5,162.167 -0.5,82.8333 -0.5,3.5 Z"/></g>
<g><path style="opacity:1" fill="#fefefe" d="M -0.5,241.5 C 335.898,431.754 671.898,622.587 1007.5,814C 1056.83,814.5 1106.17,814.667 1155.5,814.5C 1155.5,867.167 1155.5,919.833 1155.5,972.5C 1090.17,972.667 1024.83,972.5 959.5,972C 639.723,784.272 319.723,596.772 -0.5,409.5C -0.5,353.5 -0.5,297.5 -0.5,241.5 Z"/></g>
<g><path style="opacity:1" fill="#007b43" d="M -0.5,409.5 C 319.723,596.772 639.723,784.272 959.5,972C 1024.83,972.5 1090.17,972.667 1155.5,972.5C 1155.5,1135.83 1155.5,1299.17 1155.5,1462.5C 1090.5,1462.33 1025.5,1462.5 960.5,1463C 640.451,1650.69 320.117,1837.86 -0.5,2024.5C -0.5,1849.5 -0.5,1674.5 -0.5,1499.5C 158.708,1407.13 318.041,1314.96 477.5,1223C 318.239,1129.54 158.906,1036.38 -0.5,943.5C -0.5,765.5 -0.5,587.5 -0.5,409.5 Z"/></g>
<g><path style="opacity:1" fill="#feb700" d="M -0.5,943.5 C 158.906,1036.38 318.239,1129.54 477.5,1223C 318.041,1314.96 158.708,1407.13 -0.5,1499.5C -0.5,1443.17 -0.5,1386.83 -0.5,1330.5C 36.162,1310.5 72.8287,1290.5 109.5,1270.5C 111.848,1270.41 113.514,1269.41 114.5,1267.5C 138.246,1254.12 162.246,1240.96 186.5,1228C 190.5,1225.33 194.5,1222.67 198.5,1220C 167.978,1202.57 137.312,1185.41 106.5,1168.5C 106.027,1167.09 105.027,1166.43 103.5,1166.5C 68.5203,1147.68 33.8537,1128.34 -0.5,1108.5C -0.5,1053.5 -0.5,998.5 -0.5,943.5 Z"/></g>
<g><path style="opacity:1" fill="#000000" d="M -0.5,1108.5 C 33.8537,1128.34 68.5203,1147.68 103.5,1166.5C 103.973,1167.91 104.973,1168.57 106.5,1168.5C 137.312,1185.41 167.978,1202.57 198.5,1220C 194.5,1222.67 190.5,1225.33 186.5,1228C 162.246,1240.96 138.246,1254.12 114.5,1267.5C 112.326,1267.75 110.659,1268.75 109.5,1270.5C 72.8287,1290.5 36.162,1310.5 -0.5,1330.5C -0.5,1256.5 -0.5,1182.5 -0.5,1108.5 Z"/></g>
<g><path style="opacity:1" fill="#714702" d="M 103.5,1166.5 C 105.027,1166.43 106.027,1167.09 106.5,1168.5C 104.973,1168.57 103.973,1167.91 103.5,1166.5 Z"/></g>
<g><path style="opacity:1" fill="#9f6a01" d="M 114.5,1267.5 C 113.514,1269.41 111.848,1270.41 109.5,1270.5C 110.659,1268.75 112.326,1267.75 114.5,1267.5 Z"/></g>
<g><path style="opacity:1" fill="#fefefe" d="M 1155.5,1462.5 C 1155.5,1516.5 1155.5,1570.5 1155.5,1624.5C 1105.83,1624.33 1056.17,1624.5 1006.5,1625C 972.261,1644.76 937.928,1664.26 903.5,1683.5C 901.973,1683.43 900.973,1684.09 900.5,1685.5C 838.249,1720.7 775.916,1756.03 713.5,1791.5C 711.973,1791.43 710.973,1792.09 710.5,1793.5C 704.5,1796.83 698.5,1800.17 692.5,1803.5C 690.973,1803.43 689.973,1804.09 689.5,1805.5C 641.741,1832.22 594.074,1859.22 546.5,1886.5C 544.973,1886.43 543.973,1887.09 543.5,1888.5C 436.919,1948.62 330.586,2008.95 224.5,2069.5C 222.973,2069.43 221.973,2070.09 221.5,2071.5C 188.097,2090.71 154.431,2109.71 120.5,2128.5C 118.973,2128.43 117.973,2129.09 117.5,2130.5C 111.527,2133.82 105.527,2137.15 99.5,2140.5C 97.9731,2140.43 96.9731,2141.09 96.5,2142.5C 63.9144,2160.62 31.581,2178.95 -0.5,2197.5C -0.5,2139.83 -0.5,2082.17 -0.5,2024.5C 320.117,1837.86 640.451,1650.69 960.5,1463C 1025.5,1462.5 1090.5,1462.33 1155.5,1462.5 Z"/></g>
<g><path style="opacity:1" fill="#00199e" d="M 1155.5,1624.5 C 1155.5,1894.83 1155.5,2165.17 1155.5,2435.5C 770.167,2435.5 384.833,2435.5 -0.5,2435.5C -0.5,2356.17 -0.5,2276.83 -0.5,2197.5C 31.581,2178.95 63.9144,2160.62 96.5,2142.5C 98.0269,2142.57 99.0269,2141.91 99.5,2140.5C 105.527,2137.15 111.527,2133.82 117.5,2130.5C 119.027,2130.57 120.027,2129.91 120.5,2128.5C 154.431,2109.71 188.097,2090.71 221.5,2071.5C 223.027,2071.57 224.027,2070.91 224.5,2069.5C 330.586,2008.95 436.919,1948.62 543.5,1888.5C 545.027,1888.57 546.027,1887.91 546.5,1886.5C 594.074,1859.22 641.741,1832.22 689.5,1805.5C 691.027,1805.57 692.027,1804.91 692.5,1803.5C 698.5,1800.17 704.5,1796.83 710.5,1793.5C 712.027,1793.57 713.027,1792.91 713.5,1791.5C 775.916,1756.03 838.249,1720.7 900.5,1685.5C 902.027,1685.57 903.027,1684.91 903.5,1683.5C 937.928,1664.26 972.261,1644.76 1006.5,1625C 1056.17,1624.5 1105.83,1624.33 1155.5,1624.5 Z"/></g>
<g><path style="opacity:1" fill="#6d7abb" d="M 903.5,1683.5 C 903.027,1684.91 902.027,1685.57 900.5,1685.5C 900.973,1684.09 901.973,1683.43 903.5,1683.5 Z"/></g>
<g><path style="opacity:1" fill="#707cbc" d="M 713.5,1791.5 C 713.027,1792.91 712.027,1793.57 710.5,1793.5C 710.973,1792.09 711.973,1791.43 713.5,1791.5 Z"/></g>
<g><path style="opacity:1" fill="#6a76bb" d="M 692.5,1803.5 C 692.027,1804.91 691.027,1805.57 689.5,1805.5C 689.973,1804.09 690.973,1803.43 692.5,1803.5 Z"/></g>
<g><path style="opacity:1" fill="#6976bb" d="M 546.5,1886.5 C 546.027,1887.91 545.027,1888.57 543.5,1888.5C 543.973,1887.09 544.973,1886.43 546.5,1886.5 Z"/></g>
<g><path style="opacity:1" fill="#6772b9" d="M 224.5,2069.5 C 224.027,2070.91 223.027,2071.57 221.5,2071.5C 221.973,2070.09 222.973,2069.43 224.5,2069.5 Z"/></g>
<g><path style="opacity:1" fill="#727fbf" d="M 120.5,2128.5 C 120.027,2129.91 119.027,2130.57 117.5,2130.5C 117.973,2129.09 118.973,2128.43 120.5,2128.5 Z"/></g>
<g><path style="opacity:1" fill="#707cbd" d="M 99.5,2140.5 C 99.0269,2141.91 98.0269,2142.57 96.5,2142.5C 96.9731,2141.09 97.9731,2140.43 99.5,2140.5 Z"/></g>
</svg>
